<svg id="svg" version="1.1" xmlns="http://www.w3.org/2000/svg" xmlns:xlink="http://www.w3.org/1999/xlink" width="80" height="80" viewBox="0, 0, 400,300"><g id="svgg"><path id="path0" d="M189.931 88.890 C 182.272 96.692,173.629 105.506,170.726 108.477 C 167.822 111.448,161.538 117.862,156.761 122.731 C 151.984 127.599,146.804 132.899,145.250 134.509 L 142.425 137.434 149.682 137.434 L 156.939 137.434 156.939 164.291 L 156.939 191.148 169.992 191.148 L 183.046 191.148 183.046 164.478 C 183.046 143.503,183.126 137.744,183.421 137.507 C 184.138 136.931,227.121 136.406,228.020 136.961 C 228.265 137.113,228.357 144.430,228.357 163.859 L 228.357 190.548 240.959 190.548 L 253.560 190.548 253.637 163.466 L 253.713 136.384 260.270 136.234 L 266.827 136.084 262.371 131.763 C 259.920 129.387,252.176 121.812,245.161 114.930 C 238.147 108.048,231.530 101.566,230.458 100.526 C 229.385 99.486,223.057 93.288,216.396 86.752 C 209.735 80.216,204.188 74.832,204.071 74.786 C 203.953 74.741,197.590 81.087,189.931 88.890 " stroke="none" fill="#fcfbfb" fill-rule="evenodd"></path><path id="path1" d="M193.848 31.208 C 193.601 31.368,192.427 31.501,191.241 31.503 C 190.054 31.506,188.999 31.643,188.897 31.808 C 188.795 31.973,188.036 32.108,187.209 32.108 C 186.383 32.108,185.437 32.252,185.108 32.429 C 184.778 32.605,184.078 32.758,183.552 32.768 C 183.026 32.779,182.437 32.913,182.243 33.066 C 182.049 33.219,181.307 33.402,180.594 33.473 C 179.880 33.544,179.251 33.739,179.196 33.906 C 179.140 34.072,178.566 34.209,177.919 34.209 C 177.273 34.209,176.744 34.344,176.744 34.509 C 176.744 34.674,176.272 34.809,175.694 34.809 C 175.116 34.809,174.644 34.944,174.644 35.109 C 174.644 35.274,174.104 35.409,173.443 35.409 C 172.783 35.409,172.243 35.544,172.243 35.709 C 172.243 35.874,171.838 36.009,171.343 36.009 C 170.848 36.009,170.443 36.144,170.443 36.309 C 170.443 36.474,170.038 36.609,169.542 36.609 C 169.047 36.609,168.642 36.744,168.642 36.909 C 168.642 37.074,168.313 37.209,167.910 37.209 C 167.507 37.209,167.094 37.344,166.992 37.509 C 166.890 37.674,166.477 37.809,166.074 37.809 C 165.671 37.809,165.341 37.944,165.341 38.110 C 165.341 38.275,165.004 38.410,164.591 38.410 C 164.179 38.410,163.841 38.545,163.841 38.710 C 163.841 38.875,163.503 39.010,163.091 39.010 C 162.678 39.010,162.341 39.145,162.341 39.310 C 162.341 39.475,162.163 39.610,161.947 39.610 C 161.730 39.610,160.853 39.947,159.998 40.360 C 159.142 40.773,158.307 41.110,158.141 41.110 C 157.975 41.110,157.839 41.245,157.839 41.410 C 157.839 41.575,157.569 41.710,157.239 41.710 C 156.909 41.710,156.639 41.845,156.639 42.011 C 156.639 42.176,156.369 42.311,156.039 42.311 C 155.709 42.311,155.439 42.446,155.439 42.611 C 155.439 42.776,155.169 42.911,154.839 42.911 C 154.509 42.911,154.239 43.046,154.239 43.211 C 154.239 43.376,153.968 43.511,153.638 43.511 C 153.308 43.511,153.038 43.621,153.038 43.755 C 153.038 43.889,152.566 44.184,151.988 44.411 C 151.410 44.638,150.938 44.933,150.938 45.067 C 150.938 45.201,150.668 45.311,150.338 45.311 C 150.008 45.311,149.737 45.446,149.737 45.611 C 149.737 45.776,149.560 45.911,149.344 45.911 C 149.127 45.911,148.660 46.182,148.306 46.512 C 147.952 46.842,147.454 47.112,147.199 47.112 C 146.945 47.112,146.737 47.216,146.737 47.344 C 146.737 47.471,146.264 47.830,145.686 48.141 C 145.109 48.452,144.636 48.820,144.636 48.959 C 144.636 49.099,144.467 49.213,144.261 49.213 C 144.055 49.213,143.413 49.618,142.836 50.113 C 142.258 50.607,141.646 51.012,141.477 51.012 C 141.307 51.012,140.973 51.283,140.735 51.613 C 140.497 51.943,140.120 52.213,139.897 52.213 C 139.674 52.213,139.320 52.382,139.111 52.588 C 138.901 52.794,138.269 53.301,137.707 53.713 C 137.144 54.126,136.047 55.105,135.268 55.889 C 134.489 56.673,133.715 57.314,133.548 57.314 C 133.035 57.314,127.832 62.230,127.832 62.714 C 127.832 62.899,127.697 62.968,127.532 62.866 C 127.367 62.764,127.232 62.823,127.232 62.997 C 127.232 63.171,125.949 64.558,124.381 66.079 C 122.813 67.599,121.530 68.949,121.530 69.077 C 121.530 69.328,121.041 69.951,119.505 71.654 C 118.968 72.249,118.530 72.857,118.530 73.007 C 118.530 73.156,118.125 73.656,117.629 74.119 C 117.134 74.581,116.729 75.084,116.729 75.237 C 116.729 75.389,116.392 75.831,115.979 76.219 C 115.566 76.607,115.228 77.069,115.228 77.247 C 115.228 77.424,114.823 78.042,114.329 78.620 C 113.834 79.197,113.429 79.839,113.429 80.045 C 113.429 80.251,113.310 80.420,113.165 80.420 C 113.020 80.420,112.733 80.825,112.528 81.320 C 112.323 81.815,112.037 82.221,111.892 82.221 C 111.747 82.221,111.628 82.491,111.628 82.821 C 111.628 83.151,111.518 83.421,111.384 83.421 C 111.086 83.421,109.827 85.724,109.827 86.268 C 109.827 86.482,109.625 86.735,109.377 86.830 C 109.130 86.925,108.927 87.198,108.927 87.437 C 108.927 87.676,108.810 87.917,108.667 87.972 C 108.316 88.107,105.926 92.665,105.926 93.199 C 105.926 93.432,105.791 93.623,105.626 93.623 C 105.461 93.623,105.326 93.886,105.326 94.206 C 105.326 94.526,105.191 94.872,105.026 94.974 C 104.861 95.076,104.726 95.489,104.726 95.892 C 104.726 96.295,104.591 96.624,104.426 96.624 C 104.261 96.624,104.126 96.894,104.126 97.224 C 104.126 97.554,104.024 97.824,103.899 97.824 C 103.650 97.824,102.926 99.943,102.926 100.670 C 102.926 100.921,102.791 101.125,102.626 101.125 C 102.461 101.125,102.326 101.382,102.326 101.695 C 102.326 102.008,101.996 102.844,101.593 103.553 C 101.191 104.262,100.929 104.951,101.011 105.084 C 101.093 105.217,100.950 105.626,100.693 105.993 C 100.435 106.360,100.225 106.960,100.225 107.326 C 100.225 107.692,100.090 108.075,99.925 108.177 C 99.760 108.279,99.625 108.827,99.625 109.395 C 99.625 109.963,99.490 110.428,99.325 110.428 C 99.160 110.428,99.025 110.825,99.025 111.310 C 99.025 111.796,98.890 112.276,98.725 112.378 C 98.560 112.480,98.425 113.096,98.425 113.746 C 98.425 114.397,98.290 114.929,98.125 114.929 C 97.959 114.929,97.824 115.528,97.824 116.261 C 97.824 116.994,97.689 117.677,97.524 117.779 C 97.359 117.881,97.224 118.557,97.224 119.280 C 97.224 120.003,97.089 120.678,96.924 120.780 C 96.759 120.882,96.624 121.692,96.624 122.581 C 96.624 123.469,96.489 124.279,96.324 124.381 C 96.159 124.483,96.024 125.639,96.024 126.949 C 96.024 128.338,95.899 129.332,95.724 129.332 C 95.529 129.332,95.424 133.533,95.424 141.335 C 95.424 149.137,95.529 153.338,95.724 153.338 C 95.900 153.338,96.024 154.389,96.024 155.889 C 96.024 157.389,96.148 158.440,96.324 158.440 C 96.491 158.440,96.624 159.240,96.624 160.240 C 96.624 161.240,96.758 162.041,96.924 162.041 C 97.089 162.041,97.224 162.783,97.224 163.691 C 97.224 164.599,97.359 165.341,97.524 165.341 C 97.689 165.341,97.824 165.881,97.824 166.542 C 97.824 167.202,97.959 167.742,98.125 167.742 C 98.290 167.742,98.425 168.274,98.425 168.925 C 98.425 169.575,98.560 170.191,98.725 170.293 C 98.890 170.395,99.025 170.935,99.025 171.493 C 99.025 172.051,99.160 172.591,99.325 172.693 C 99.490 172.795,99.625 173.276,99.625 173.761 C 99.625 174.247,99.760 174.644,99.925 174.644 C 100.090 174.644,100.225 175.049,100.225 175.544 C 100.225 176.039,100.360 176.444,100.525 176.444 C 100.690 176.444,100.825 176.853,100.825 177.354 C 100.825 177.854,100.994 178.328,101.200 178.408 C 101.407 178.487,101.597 178.917,101.623 179.364 C 101.649 179.811,101.818 180.226,101.998 180.286 C 102.178 180.346,102.326 180.789,102.326 181.270 C 102.326 181.752,102.461 182.146,102.626 182.146 C 102.791 182.146,102.926 182.416,102.926 182.746 C 102.926 183.076,103.061 183.346,103.226 183.346 C 103.391 183.346,103.526 183.675,103.526 184.078 C 103.526 184.481,103.661 184.894,103.826 184.996 C 103.991 185.098,104.126 185.511,104.126 185.914 C 104.126 186.317,104.261 186.647,104.426 186.647 C 104.591 186.647,104.726 186.917,104.726 187.247 C 104.726 187.577,104.861 187.847,105.026 187.847 C 105.191 187.847,105.326 188.117,105.326 188.447 C 105.326 188.777,105.461 189.047,105.626 189.047 C 105.791 189.047,105.926 189.317,105.926 189.647 C 105.926 189.977,106.062 190.248,106.227 190.248 C 106.392 190.248,106.527 190.518,106.527 190.848 C 106.527 191.178,106.662 191.448,106.827 191.448 C 106.992 191.448,107.127 191.624,107.127 191.839 C 107.127 192.516,108.945 195.874,109.902 196.964 C 110.191 197.293,110.428 197.740,110.428 197.956 C 110.428 198.172,110.563 198.350,110.728 198.350 C 110.893 198.350,111.028 198.594,111.028 198.893 C 111.028 199.192,111.298 199.727,111.628 200.081 C 111.958 200.435,112.228 200.933,112.228 201.188 C 112.228 201.442,112.363 201.650,112.528 201.650 C 112.693 201.650,112.828 201.819,112.829 202.026 C 112.829 202.232,113.166 202.793,113.579 203.272 C 113.991 203.752,114.329 204.252,114.329 204.384 C 114.329 204.516,114.639 204.934,115.018 205.313 C 115.397 205.693,115.798 206.239,115.909 206.527 C 116.020 206.816,116.249 207.052,116.420 207.052 C 116.590 207.052,116.729 207.225,116.729 207.436 C 116.729 207.647,116.999 208.014,117.329 208.252 C 117.659 208.490,117.929 208.871,117.929 209.098 C 117.929 209.326,118.335 209.890,118.830 210.353 C 119.325 210.815,119.730 211.318,119.730 211.469 C 119.730 211.621,120.550 212.613,121.551 213.674 C 122.553 214.736,123.735 216.075,124.177 216.651 C 125.219 218.009,129.186 221.950,130.674 223.106 C 131.312 223.601,132.550 224.715,133.427 225.581 C 134.304 226.448,135.172 227.157,135.357 227.157 C 135.542 227.157,136.051 227.529,136.489 227.983 C 136.926 228.437,137.824 229.210,138.485 229.699 C 139.145 230.189,139.947 230.830,140.267 231.124 C 140.587 231.418,140.996 231.658,141.176 231.658 C 141.356 231.658,141.698 231.928,141.935 232.258 C 142.173 232.588,142.578 232.858,142.836 232.858 C 143.093 232.858,143.498 233.128,143.736 233.458 C 143.974 233.788,144.347 234.059,144.565 234.059 C 144.783 234.059,145.251 234.329,145.606 234.659 C 145.960 234.989,146.494 235.259,146.793 235.259 C 147.092 235.259,147.337 235.394,147.337 235.559 C 147.337 235.724,147.516 235.859,147.735 235.859 C 147.953 235.859,148.450 236.197,148.837 236.609 C 149.225 237.022,149.721 237.359,149.940 237.359 C 150.159 237.359,150.338 237.494,150.338 237.659 C 150.338 237.824,150.608 237.959,150.938 237.959 C 151.268 237.959,151.538 238.069,151.538 238.204 C 151.538 238.338,152.011 238.633,152.588 238.860 C 153.166 239.086,153.638 239.382,153.638 239.516 C 153.638 239.650,153.908 239.760,154.239 239.760 C 154.569 239.760,154.839 239.895,154.839 240.060 C 154.839 240.225,155.109 240.360,155.439 240.360 C 155.769 240.360,156.039 240.495,156.039 240.660 C 156.039 240.825,156.309 240.960,156.639 240.960 C 156.969 240.960,157.239 241.095,157.239 241.260 C 157.239 241.425,157.501 241.560,157.822 241.560 C 158.142 241.560,158.488 241.695,158.590 241.860 C 158.692 242.026,159.105 242.161,159.508 242.161 C 159.910 242.161,160.240 242.296,160.240 242.461 C 160.240 242.626,160.502 242.761,160.823 242.761 C 161.143 242.761,161.488 242.896,161.590 243.061 C 161.692 243.226,162.038 243.361,162.358 243.361 C 162.679 243.361,162.941 243.493,162.941 243.655 C 162.941 243.817,163.312 244.042,163.766 244.155 C 164.220 244.268,165.034 244.608,165.576 244.911 C 166.117 245.214,166.818 245.461,167.133 245.461 C 167.449 245.461,167.790 245.596,167.892 245.761 C 167.994 245.926,168.475 246.062,168.960 246.062 C 169.445 246.062,169.842 246.197,169.842 246.362 C 169.842 246.527,170.248 246.662,170.743 246.662 C 171.238 246.662,171.643 246.797,171.643 246.962 C 171.643 247.127,172.048 247.262,172.543 247.262 C 173.038 247.262,173.443 247.397,173.443 247.562 C 173.443 247.727,173.908 247.862,174.476 247.862 C 175.044 247.862,175.592 247.997,175.694 248.162 C 175.796 248.327,176.344 248.462,176.912 248.462 C 177.480 248.462,177.944 248.597,177.944 248.762 C 177.944 248.927,178.477 249.062,179.127 249.062 C 179.778 249.062,180.393 249.197,180.495 249.362 C 180.597 249.527,181.272 249.662,181.995 249.662 C 182.719 249.662,183.394 249.797,183.496 249.962 C 183.598 250.128,184.341 250.263,185.146 250.263 C 185.952 250.263,186.695 250.398,186.797 250.563 C 186.899 250.728,187.908 250.863,189.040 250.863 C 190.398 250.863,191.139 250.988,191.220 251.231 C 191.630 252.459,219.776 252.451,220.185 251.222 C 220.263 250.990,221.031 250.863,222.363 250.863 C 223.495 250.863,224.504 250.728,224.606 250.563 C 224.708 250.398,225.451 250.263,226.257 250.263 C 227.062 250.263,227.805 250.128,227.907 249.962 C 228.009 249.797,228.692 249.662,229.425 249.662 C 230.158 249.662,230.758 249.527,230.758 249.362 C 230.758 249.197,231.365 249.062,232.108 249.062 C 232.851 249.062,233.458 248.927,233.458 248.762 C 233.458 248.597,233.998 248.462,234.659 248.462 C 235.319 248.462,235.859 248.327,235.859 248.162 C 235.859 247.997,236.256 247.862,236.741 247.862 C 237.227 247.862,237.707 247.727,237.809 247.562 C 237.911 247.397,238.452 247.262,239.010 247.262 C 239.568 247.262,240.108 247.127,240.210 246.962 C 240.312 246.797,240.659 246.662,240.982 246.662 C 241.305 246.662,241.837 246.527,242.165 246.362 C 242.492 246.197,243.029 245.926,243.357 245.761 C 243.685 245.596,244.225 245.461,244.557 245.461 C 244.889 245.461,245.161 245.326,245.161 245.161 C 245.161 244.996,245.427 244.861,245.751 244.861 C 246.476 244.861,248.462 243.941,248.462 243.605 C 248.462 243.471,248.867 243.361,249.362 243.361 C 249.857 243.361,250.263 243.226,250.263 243.061 C 250.263 242.896,250.533 242.761,250.863 242.761 C 251.193 242.761,251.463 242.626,251.463 242.461 C 251.463 242.296,251.733 242.161,252.063 242.161 C 252.393 242.161,252.663 242.026,252.663 241.860 C 252.663 241.695,253.001 241.560,253.413 241.560 C 253.826 241.560,254.164 241.425,254.164 241.260 C 254.164 241.095,254.434 240.960,254.764 240.960 C 255.094 240.960,255.364 240.825,255.364 240.660 C 255.364 240.495,255.634 240.360,255.964 240.360 C 256.294 240.360,256.564 240.225,256.564 240.060 C 256.564 239.895,256.834 239.760,257.164 239.760 C 257.494 239.760,257.764 239.625,257.764 239.460 C 257.764 239.295,258.035 239.160,258.365 239.160 C 258.695 239.160,258.965 239.025,258.965 238.860 C 258.965 238.695,259.235 238.560,259.565 238.560 C 259.895 238.560,260.165 238.425,260.165 238.260 C 260.165 238.095,260.303 237.959,260.472 237.959 C 260.836 237.959,263.272 236.408,263.416 236.084 C 263.471 235.960,263.745 235.859,264.025 235.859 C 264.305 235.859,264.728 235.589,264.966 235.259 C 265.204 234.929,265.609 234.659,265.866 234.659 C 266.124 234.659,266.529 234.389,266.767 234.059 C 267.005 233.728,267.440 233.458,267.733 233.458 C 268.027 233.458,268.267 233.323,268.267 233.158 C 268.267 232.993,268.470 232.858,268.717 232.858 C 268.965 232.858,269.167 232.723,269.167 232.558 C 269.167 232.393,269.350 232.258,269.573 232.258 C 269.796 232.258,270.402 231.853,270.921 231.358 C 271.439 230.863,271.965 230.457,272.090 230.457 C 272.476 230.457,273.968 229.058,273.968 228.697 C 273.968 228.510,274.169 228.357,274.415 228.357 C 274.902 228.357,275.606 227.836,277.149 226.332 C 277.699 225.795,278.273 225.356,278.425 225.356 C 278.818 225.356,282.671 221.565,282.671 221.178 C 282.671 221.001,282.807 220.855,282.975 220.855 C 283.371 220.855,288.972 215.254,288.972 214.858 C 288.972 214.690,289.107 214.554,289.272 214.554 C 289.437 214.554,289.572 214.341,289.572 214.082 C 289.572 213.606,290.255 212.753,290.636 212.753 C 290.915 212.753,292.873 210.598,292.873 210.291 C 292.873 210.157,293.278 209.623,293.773 209.105 C 294.269 208.587,294.674 208.050,294.674 207.911 C 294.674 207.671,295.284 206.848,296.099 205.989 C 296.305 205.772,296.474 205.412,296.474 205.189 C 296.474 204.966,296.744 204.589,297.074 204.351 C 297.404 204.113,297.674 203.678,297.674 203.385 C 297.674 203.091,297.805 202.851,297.965 202.851 C 298.283 202.851,300.375 199.720,300.375 199.244 C 300.375 199.082,300.510 198.950,300.675 198.950 C 300.840 198.950,300.975 198.742,300.975 198.487 C 300.975 198.233,301.245 197.735,301.575 197.380 C 301.905 197.026,302.176 196.559,302.176 196.343 C 302.176 196.126,302.311 195.949,302.476 195.949 C 302.641 195.949,302.776 195.679,302.776 195.349 C 302.776 195.019,302.911 194.749,303.076 194.749 C 303.241 194.749,303.376 194.479,303.376 194.149 C 303.376 193.818,303.511 193.548,303.676 193.548 C 303.841 193.548,303.976 193.278,303.976 192.948 C 303.976 192.618,304.111 192.348,304.276 192.348 C 304.441 192.348,304.576 192.011,304.576 191.598 C 304.576 191.185,304.711 190.848,304.876 190.848 C 305.041 190.848,305.176 190.578,305.176 190.248 C 305.176 189.917,305.301 189.647,305.454 189.647 C 305.607 189.647,306.092 188.871,306.531 187.922 C 306.970 186.973,307.452 185.962,307.603 185.675 C 307.754 185.389,307.877 184.883,307.877 184.550 C 307.877 184.218,308.012 183.946,308.177 183.946 C 308.342 183.946,308.477 183.676,308.477 183.346 C 308.477 183.016,308.612 182.746,308.777 182.746 C 308.942 182.746,309.077 182.341,309.077 181.845 C 309.077 181.350,309.212 180.945,309.377 180.945 C 309.542 180.945,309.677 180.616,309.677 180.213 C 309.677 179.810,309.812 179.397,309.977 179.295 C 310.143 179.193,310.278 178.780,310.278 178.377 C 310.278 177.974,310.413 177.644,310.578 177.644 C 310.743 177.644,310.878 177.239,310.878 176.744 C 310.878 176.249,311.013 175.844,311.178 175.844 C 311.343 175.844,311.478 175.379,311.478 174.811 C 311.478 174.244,311.613 173.695,311.778 173.593 C 311.943 173.491,312.078 173.011,312.078 172.525 C 312.078 172.040,312.213 171.643,312.378 171.643 C 312.543 171.643,312.678 171.047,312.678 170.318 C 312.678 169.589,312.826 168.943,313.007 168.883 C 313.340 168.772,313.800 167.066,314.084 164.891 C 314.170 164.231,314.361 163.563,314.509 163.406 C 314.657 163.249,314.779 162.481,314.779 161.698 C 314.779 160.916,314.914 160.192,315.079 160.090 C 315.244 159.988,315.379 159.062,315.379 158.032 C 315.379 157.002,315.505 156.031,315.659 155.874 C 316.263 155.259,316.860 133.694,316.289 133.123 C 316.118 132.953,315.979 131.517,315.979 129.932 C 315.979 128.348,315.855 126.923,315.704 126.767 C 315.553 126.610,315.356 125.671,315.266 124.681 C 314.964 121.362,314.749 119.884,314.482 119.280 C 314.335 118.950,314.150 118.207,314.070 117.629 C 313.777 115.526,313.262 113.576,312.974 113.478 C 312.811 113.423,312.678 112.925,312.678 112.371 C 312.678 111.817,312.543 111.280,312.378 111.178 C 312.213 111.076,312.078 110.595,312.078 110.110 C 312.078 109.624,311.943 109.227,311.778 109.227 C 311.613 109.227,311.478 108.755,311.478 108.177 C 311.478 107.599,311.343 107.127,311.178 107.127 C 311.013 107.127,310.878 106.722,310.878 106.227 C 310.878 105.731,310.743 105.326,310.578 105.326 C 310.413 105.326,310.278 104.921,310.278 104.426 C 310.278 103.931,310.143 103.526,309.977 103.526 C 309.812 103.526,309.677 103.121,309.677 102.626 C 309.677 102.131,309.542 101.725,309.377 101.725 C 309.212 101.725,309.077 101.463,309.077 101.143 C 309.077 100.823,308.942 100.477,308.777 100.375 C 308.612 100.273,308.477 99.868,308.477 99.475 C 308.477 99.082,308.342 98.677,308.177 98.575 C 308.012 98.473,307.877 98.127,307.877 97.807 C 307.877 97.486,307.742 97.224,307.577 97.224 C 307.412 97.224,307.277 96.954,307.277 96.624 C 307.277 96.294,307.142 96.024,306.977 96.024 C 306.812 96.024,306.677 95.826,306.677 95.584 C 306.677 94.975,305.720 93.023,305.421 93.023 C 305.286 93.023,305.176 92.686,305.176 92.273 C 305.176 91.860,305.041 91.523,304.876 91.523 C 304.711 91.523,304.576 91.253,304.576 90.923 C 304.576 90.593,304.441 90.323,304.276 90.323 C 304.111 90.323,303.976 90.053,303.976 89.722 C 303.976 89.392,303.841 89.122,303.676 89.122 C 303.511 89.122,303.376 88.945,303.376 88.729 C 303.376 88.512,303.106 88.045,302.776 87.691 C 302.446 87.337,302.176 86.839,302.176 86.584 C 302.176 86.330,302.041 86.122,301.875 86.122 C 301.710 86.122,301.575 85.877,301.575 85.578 C 301.575 85.279,301.305 84.745,300.975 84.390 C 300.645 84.036,300.375 83.538,300.375 83.283 C 300.375 83.029,300.240 82.821,300.075 82.821 C 299.910 82.821,299.775 82.652,299.775 82.446 C 299.774 82.085,298.985 81.011,297.688 79.606 C 297.350 79.240,297.074 78.759,297.074 78.537 C 297.074 78.315,296.804 77.843,296.474 77.488 C 296.144 77.134,295.874 76.724,295.874 76.576 C 295.874 76.429,295.469 75.884,294.974 75.366 C 294.479 74.848,294.074 74.309,294.074 74.169 C 294.074 74.029,293.466 73.271,292.723 72.484 C 291.980 71.698,291.373 70.946,291.373 70.812 C 291.373 70.679,290.594 69.779,289.641 68.811 C 288.689 67.844,287.577 66.583,287.171 66.009 C 286.251 64.709,281.215 59.715,280.825 59.715 C 280.666 59.715,279.742 58.905,278.770 57.914 C 277.798 56.924,276.918 56.114,276.814 56.114 C 276.711 56.114,276.423 55.910,276.173 55.661 C 275.924 55.412,275.596 55.285,275.445 55.379 C 275.293 55.473,275.169 55.400,275.169 55.218 C 275.169 54.781,273.792 53.413,273.352 53.413 C 273.163 53.413,272.631 53.008,272.168 52.513 C 271.706 52.018,271.161 51.613,270.958 51.613 C 270.754 51.613,270.370 51.376,270.103 51.086 C 269.836 50.796,269.212 50.358,268.717 50.113 C 268.222 49.867,267.613 49.463,267.363 49.214 C 266.877 48.731,265.999 48.139,265.266 47.800 C 265.019 47.686,264.554 47.349,264.234 47.052 C 263.915 46.755,263.476 46.512,263.259 46.512 C 263.043 46.512,262.866 46.377,262.866 46.212 C 262.866 46.047,262.596 45.911,262.266 45.911 C 261.935 45.911,261.665 45.776,261.665 45.611 C 261.665 45.446,261.463 45.311,261.215 45.311 C 260.968 45.311,260.765 45.176,260.765 45.011 C 260.765 44.846,260.495 44.711,260.165 44.711 C 259.835 44.711,259.565 44.576,259.565 44.411 C 259.565 44.246,259.295 44.111,258.965 44.111 C 258.635 44.111,258.365 43.976,258.365 43.811 C 258.365 43.646,258.095 43.511,257.764 43.511 C 257.434 43.511,257.164 43.376,257.164 43.211 C 257.164 43.046,256.894 42.911,256.564 42.911 C 256.234 42.911,255.964 42.776,255.964 42.611 C 255.964 42.446,255.694 42.311,255.364 42.311 C 255.034 42.311,254.764 42.176,254.764 42.011 C 254.764 41.845,254.558 41.710,254.308 41.710 C 254.057 41.710,253.348 41.404,252.732 41.028 C 251.617 40.349,250.421 39.764,249.137 39.270 C 247.825 38.765,246.806 38.336,246.291 38.075 C 246.004 37.929,245.498 37.809,245.165 37.809 C 244.833 37.809,244.561 37.674,244.561 37.509 C 244.561 37.344,244.156 37.209,243.661 37.209 C 243.166 37.209,242.761 37.074,242.761 36.909 C 242.761 36.744,242.356 36.609,241.860 36.609 C 241.365 36.609,240.960 36.474,240.960 36.309 C 240.960 36.144,240.563 36.009,240.078 36.009 C 239.592 36.009,239.112 35.874,239.010 35.709 C 238.908 35.544,238.427 35.409,237.942 35.409 C 237.456 35.409,237.059 35.274,237.059 35.109 C 237.059 34.944,236.519 34.809,235.859 34.809 C 235.199 34.809,234.659 34.674,234.659 34.509 C 234.659 34.344,234.130 34.209,233.483 34.209 C 232.837 34.209,232.263 34.076,232.208 33.913 C 232.106 33.610,230.050 33.080,227.907 32.802 C 227.247 32.717,226.578 32.526,226.422 32.377 C 226.265 32.229,225.361 32.108,224.414 32.108 C 223.466 32.108,222.608 31.973,222.506 31.808 C 222.404 31.643,221.323 31.508,220.105 31.508 C 218.887 31.508,217.806 31.373,217.704 31.208 C 217.457 30.807,194.468 30.807,193.848 31.208 M207.102 76.949 C 208.642 78.423,214.708 84.365,220.582 90.152 C 226.456 95.940,235.301 104.612,240.237 109.424 C 248.221 117.206,251.846 120.757,264.141 132.838 C 268.401 137.024,268.655 136.725,260.615 136.988 L 253.863 137.208 253.863 164.028 L 253.863 190.848 240.962 190.848 L 228.060 190.848 227.984 164.066 L 227.907 137.284 223.856 137.315 C 221.628 137.332,211.737 137.451,201.877 137.579 L 183.949 137.812 183.873 164.555 L 183.796 191.298 170.293 191.298 L 156.789 191.298 156.713 164.623 L 156.636 137.948 149.486 138.115 C 142.625 138.276,141.428 138.180,141.674 137.490 C 141.809 137.110,145.750 133.032,161.859 116.602 C 175.448 102.743,176.249 101.924,184.220 93.743 C 196.132 81.517,203.608 74.105,203.947 74.185 C 204.142 74.231,205.562 75.475,207.102 76.949 " stroke="none" fill="#fc3b5c" fill-rule="evenodd"></path><path id="path2" d="M196.660 81.095 C 186.313 91.535,178.706 99.337,178.606 99.612 C 178.515 99.865,187.156 91.166,197.597 80.495 C 200.867 77.153,203.688 74.419,203.865 74.419 C 204.042 74.419,205.203 75.398,206.445 76.594 L 208.702 78.770 206.459 76.444 C 205.225 75.165,204.072 74.119,203.896 74.119 C 203.719 74.119,200.464 77.258,196.660 81.095 M208.852 78.727 C 208.852 78.936,224.436 94.351,224.768 94.471 C 224.916 94.524,221.582 91.148,217.358 86.969 C 208.238 77.945,208.852 78.540,208.852 78.727 M176.144 101.994 C 175.071 103.111,168.590 109.731,161.740 116.707 C 154.891 123.682,149.240 129.517,149.183 129.674 C 149.125 129.831,152.771 126.209,157.285 121.625 C 161.798 117.041,168.327 110.411,171.793 106.892 C 177.283 101.318,178.625 99.860,178.195 99.945 C 178.140 99.955,177.217 100.878,176.144 101.994 M234.359 103.976 C 236.251 105.874,237.867 107.427,237.950 107.427 C 238.032 107.427,236.551 105.874,234.659 103.976 C 232.766 102.078,231.150 100.525,231.068 100.525 C 230.985 100.525,232.466 102.078,234.359 103.976 M239.460 108.666 C 239.460 108.883,254.440 123.768,254.773 123.882 C 254.936 123.937,251.614 120.562,247.391 116.380 C 243.167 112.198,239.655 108.721,239.586 108.652 C 239.517 108.583,239.460 108.590,239.460 108.666 M256.864 126.032 C 257.245 126.362,257.624 126.632,257.707 126.632 C 257.790 126.632,257.613 126.362,257.314 126.032 C 257.016 125.701,256.636 125.431,256.472 125.431 C 256.307 125.431,256.484 125.701,256.864 126.032 M263.723 132.680 C 265.598 134.593,267.005 136.237,266.850 136.333 C 266.695 136.429,264.283 136.531,261.491 136.560 C 258.699 136.590,255.806 136.714,255.064 136.836 L 253.713 137.059 255.541 137.097 C 259.981 137.188,267.367 136.737,267.367 136.374 C 267.367 136.173,265.873 134.540,264.048 132.745 C 259.655 128.426,259.531 128.402,263.723 132.680 M145.236 133.600 C 140.359 138.661,140.053 138.336,149.488 138.115 L 156.639 137.948 156.639 164.530 C 156.639 179.150,156.740 191.175,156.864 191.252 C 156.988 191.328,157.022 179.352,156.939 164.638 L 156.789 137.884 149.737 137.808 C 145.859 137.766,142.491 137.659,142.253 137.570 C 141.956 137.460,142.942 136.284,145.389 133.831 C 147.352 131.863,148.897 130.200,148.822 130.136 C 148.748 130.072,147.134 131.631,145.236 133.600 M191.298 137.434 L 183.796 137.584 183.719 164.274 C 183.659 185.151,183.561 191.022,183.269 191.229 C 182.994 191.424,183.014 191.461,183.346 191.371 C 183.741 191.263,183.805 187.977,183.873 164.491 L 183.949 137.734 192.125 137.692 C 196.621 137.669,204.824 137.557,210.353 137.444 L 220.405 137.237 209.602 137.261 C 203.661 137.274,195.424 137.352,191.298 137.434 " stroke="none" fill="#fc849b" fill-rule="evenodd"></path><path id="path3" d="M200.451 77.644 C 197.083 81.157,166.762 112.117,150.287 128.868 C 142.958 136.318,142.236 137.092,142.236 137.480 C 142.236 137.620,145.578 137.703,149.662 137.665 L 157.089 137.596 149.763 137.510 L 142.436 137.423 145.261 134.506 C 152.753 126.772,180.620 98.329,196.635 82.071 L 204.025 74.569 209.667 80.195 C 212.771 83.290,215.384 85.821,215.474 85.821 C 215.565 85.821,213.061 83.256,209.910 80.120 C 206.759 76.984,204.038 74.419,203.863 74.419 C 203.688 74.419,202.153 75.870,200.451 77.644 M222.130 92.383 C 225.655 95.861,228.633 98.800,228.748 98.915 C 228.863 99.031,228.957 99.061,228.957 98.984 C 228.957 98.760,216.374 86.283,216.031 86.166 C 215.861 86.108,218.606 88.906,222.130 92.383 M231.058 100.936 C 231.058 101.049,241.140 111.066,241.507 111.317 C 241.619 111.394,239.349 109.064,236.462 106.141 C 231.430 101.043,231.058 100.685,231.058 100.936 M243.661 113.355 C 243.661 113.653,244.761 114.707,245.461 115.078 C 245.709 115.210,245.641 115.052,245.311 114.729 C 244.981 114.405,244.475 113.903,244.186 113.613 C 243.897 113.323,243.661 113.207,243.661 113.355 M251.964 121.605 C 255.336 124.947,258.200 127.719,258.329 127.765 C 258.458 127.811,255.780 125.076,252.378 121.689 C 248.977 118.301,246.112 115.529,246.013 115.529 C 245.914 115.529,248.591 118.263,251.964 121.605 M260.465 129.734 C 260.465 129.867,260.645 130.134,260.864 130.329 C 261.083 130.524,262.501 131.895,264.015 133.377 C 265.528 134.859,266.767 136.004,266.767 135.922 C 266.767 135.840,265.349 134.360,263.616 132.633 C 261.883 130.906,260.465 129.602,260.465 129.734 M253.763 136.434 C 253.653 136.544,253.596 148.798,253.636 163.666 L 253.709 190.698 253.861 163.691 L 254.014 136.684 260.465 136.525 L 266.917 136.366 260.440 136.300 C 256.878 136.264,253.873 136.324,253.763 136.434 M186.964 137.067 C 185.241 137.116,183.654 137.303,183.438 137.482 C 183.119 137.747,183.059 142.825,183.118 164.553 L 183.191 191.298 183.343 164.441 L 183.496 137.584 188.147 137.422 C 190.705 137.332,198.465 137.224,205.391 137.182 C 212.316 137.140,218.047 137.041,218.126 136.963 C 218.272 136.817,192.683 136.902,186.964 137.067 M228.057 163.781 L 228.207 190.698 228.284 164.008 C 228.326 149.328,228.258 137.216,228.134 137.091 C 228.009 136.966,227.974 148.977,228.057 163.781 " stroke="none" fill="#fca4b4" fill-rule="evenodd"></path><path id="path4" d="M195.640 82.446 L 193.698 84.471 195.724 82.529 C 196.838 81.461,197.749 80.550,197.749 80.504 C 197.749 80.283,197.444 80.564,195.640 82.446 M210.953 81.103 C 210.953 81.148,211.999 82.195,213.278 83.428 L 215.604 85.671 213.361 83.346 C 211.278 81.186,210.953 80.883,210.953 81.103 M180.481 97.899 L 179.295 99.175 180.570 97.989 C 181.756 96.885,181.983 96.624,181.756 96.624 C 181.707 96.624,181.133 97.198,180.481 97.899 M241.560 111.178 C 242.624 112.251,243.561 113.128,243.644 113.128 C 243.726 113.128,242.924 112.251,241.860 111.178 C 240.797 110.105,239.860 109.227,239.777 109.227 C 239.695 109.227,240.497 110.105,241.560 111.178 M167.873 110.803 L 166.992 111.778 167.967 110.897 C 168.503 110.412,168.942 109.973,168.942 109.921 C 168.942 109.690,168.695 109.894,167.873 110.803 M153.169 125.806 L 152.288 126.782 153.263 125.900 C 153.800 125.416,154.239 124.977,154.239 124.925 C 154.239 124.693,153.991 124.897,153.169 125.806 M254.539 136.741 C 254.827 136.816,255.300 136.816,255.589 136.741 C 255.878 136.666,255.641 136.604,255.064 136.604 C 254.486 136.604,254.250 136.666,254.539 136.741 M224.674 137.051 C 225.207 137.117,226.152 137.118,226.775 137.053 C 227.398 136.988,226.962 136.934,225.806 136.933 C 224.651 136.931,224.142 136.984,224.674 137.051 M195.282 137.354 C 195.988 137.418,197.068 137.417,197.682 137.352 C 198.297 137.288,197.719 137.236,196.399 137.237 C 195.079 137.238,194.576 137.291,195.282 137.354 M183.484 137.809 C 183.405 138.016,183.376 150.135,183.418 164.741 L 183.496 191.298 183.646 164.366 C 183.728 149.554,183.758 137.434,183.712 137.434 C 183.665 137.434,183.563 137.603,183.484 137.809 M234.584 190.772 C 238.091 190.820,243.830 190.820,247.337 190.772 C 250.844 190.724,247.974 190.685,240.960 190.685 C 233.946 190.685,231.077 190.724,234.584 190.772 M163.616 191.373 C 167.206 191.420,173.080 191.420,176.669 191.373 C 180.259 191.325,177.322 191.285,170.143 191.285 C 162.963 191.285,160.026 191.325,163.616 191.373 " stroke="none" fill="#fc94ac" fill-rule="evenodd"></path></g></svg>
